<svg id="Layer_5" enable-background="new 0 0 64 64" height="512" viewBox="0 0 64 64" width="512" xmlns="http://www.w3.org/2000/svg" xmlns:xlink="http://www.w3.org/1999/xlink"><linearGradient id="SVGID_1_" gradientUnits="userSpaceOnUse" x1="32" x2="32" y1="63" y2=".711"><stop offset="0" stop-color="#9f2fff"/><stop offset="1" stop-color="#0bb1d3"/></linearGradient><path d="m60 29.041c-1.13 0-2.162.391-3 1.026v-7.026c0-2.206-1.794-4-4-4-.732 0-1.409.212-2 .556v-.556c0-2.206-1.794-4-4-4s-4 1.794-4 4v.556c-.591-.345-1.268-.556-2-.556-.6 0-1.18.149-1.714.403l-.425-.585c1.233-.373 2.139-1.506 2.139-2.859 0-1.478-1.076-2.702-2.485-2.948l3.786-8.519-7.644-3.822-3.657 5.486-1.526-2.29-7.974 1.329 3.912 7.823c-1.374.275-2.412 1.488-2.412 2.941 0 1.353.906 2.486 2.139 2.859l-.425.585c-.533-.254-1.114-.403-1.714-.403-.732 0-1.409.212-2 .556v-.556c0-2.206-1.794-4-4-4s-4 1.794-4 4v.556c-.591-.345-1.268-.556-2-.556-2.206 0-4 1.794-4 4v7.026c-.838-.635-1.87-1.026-3-1.026-1.654 0-3 1.346-3 3v14c0 2.146.77 4.227 2.167 5.856l3.833 4.473v6.63h22v-6.735l2.814-4.925c.07-.123.122-.255.186-.381.064.126.116.258.186.381l2.814 4.925v6.735h22v-6.63l3.833-4.472c1.397-1.63 2.167-3.71 2.167-5.857v-14c0-1.655-1.346-3-3-3zm-15-10c0-1.103.897-2 2-2s2 .897 2 2v4 14h-3.561c.359-1.229.561-2.525.561-3.869 0-1.792-.344-3.534-1-5.162v-3.979-.991zm-12.829 25.959h-.343c-6.522 0-11.828-5.306-11.828-11.828 0-2.517.782-4.922 2.262-6.957l5.247-7.215h8.981l5.247 7.215c1.481 2.035 2.263 4.44 2.263 6.957 0 6.522-5.306 11.828-11.829 11.828zm8.829-23.959c1.103 0 2 .897 2 2v.991.518l-2.5-3.438c.163-.042.329-.071.5-.071zm-12.474-14.948 2.474 3.71 4.342-6.514 4.356 2.178-3.348 7.533h-8.732l-3.118-6.236zm-2.526 10.907c-.551 0-1-.449-1-1s.449-1 1-1h12c.551 0 1 .449 1 1s-.449 1-1 1h-.491-11.018zm-3 4.041c.171 0 .337.029.5.072l-2.5 3.437v-.517-.992c0-1.103.897-2 2-2zm-8-2c0-1.103.897-2 2-2s2 .897 2 2v4 .992 3.978c-.656 1.627-1 3.369-1 5.162 0 1.329.199 2.611.551 3.828h-3.551v-13.96zm12 41.959h-18v-4h18zm.42-6h-18.96l-3.775-4.403c-1.086-1.269-1.685-2.887-1.685-4.556v-14c0-.551.449-1 1-1 1.654 0 3 1.346 3 3v7 .414l2.122 2.121c.558.559.878 1.331.878 2.121v2.344h2v-2.344c0-1.336-.52-2.591-1.464-3.535l-1.536-1.535v-6.586-11c0-1.103.897-2 2-2s2 .897 2 2v14.225c-.616.278-1.131.761-1.447 1.393l-.447.895 1.789.895.447-.895c.17-.342.513-.554.894-.554h5.07c2.093 4.477 6.506 7.646 11.689 7.958-.014 1.188-.327 2.359-.917 3.391zm27.58 6h-18v-4h18zm6-14.959c0 1.669-.599 3.287-1.685 4.556l-3.775 4.403h-18.96l-2.658-4.651c-.59-1.032-.903-2.203-.917-3.391 5.167-.31 9.568-3.461 11.669-7.917h5.09c.381 0 .724.212.894.553l.447.895 1.789-.895-.447-.895c-.316-.632-.831-1.115-1.447-1.393v-14.265c0-1.103.897-2 2-2s2 .897 2 2v11 6.586l-1.536 1.535c-.944.944-1.464 2.199-1.464 3.535v2.344h2v-2.344c0-.79.32-1.563.878-2.121l2.122-2.121v-.414-7c0-1.654 1.346-3 3-3 .551 0 1 .449 1 1zm-28-21.041h3v4h-2v-2h-2c-1.103 0-2 .897-2 2s.897 2 2 2c2.206 0 4 1.794 4 4 0 1.859-1.28 3.411-3 3.858v2.142h-2v-2h-3v-4h2v2h2c1.103 0 2-.897 2-2s-.897-2-2-2c-2.206 0-4-1.794-4-4 0-1.858 1.28-3.411 3-3.858v-2.142h2z" fill="url(#SVGID_1_)"/></svg>