<svg id="Layer_5" enable-background="new 0 0 64 64" height="512" viewBox="0 0 64 64" width="512" xmlns="http://www.w3.org/2000/svg" xmlns:xlink="http://www.w3.org/1999/xlink"><linearGradient id="SVGID_1_" gradientUnits="userSpaceOnUse" x1="32" x2="32" y1="63" y2=".869"><stop offset="0" stop-color="#9f2fff"/><stop offset="1" stop-color="#0bb1d3"/></linearGradient><path d="m25.18 36.849 1.978.299c-.094.617-.146 1.246-.156 1.868l-2-.031c.011-.713.071-1.431.178-2.136zm7.057-10.864c-3.169 2.037-5.505 5.135-6.576 8.721l1.916.572c.935-3.129 2.974-5.831 5.742-7.611l1.275-.819-1.081-1.682zm26.659 15.07c.069-.6.104-1.21.104-1.813l-.002-.26-2 .037.002.222c0 .527-.03 1.061-.091 1.585zm-11.219 11.212.646 1.893c4.997-1.706 8.79-5.768 10.147-10.863l-1.933-.516c-1.183 4.449-4.496 7.995-8.86 9.486zm15.323-13.026c0 10.896-8.864 19.759-19.759 19.759h-2.241v4h-35c-2.757 0-5-2.243-5-5v-20c0-2.757 2.243-5 5-5h7v8h8.086c-.051-.585-.086-1.172-.086-1.759 0-6.755 3.392-12.969 9.074-16.62l2.847-1.83c-1.121-.435-1.921-1.518-1.921-2.791 0-1.526 1.149-2.775 2.624-2.962l-4.624-4.624v-.414c0-2.213 1.656-4.09 3.853-4.364l1.573-.196-.733-2.198 6.768-1.354 1.587 2.382 2.551-3.4 5.667 1.417-.96 3.119 1.841.23c2.197.274 3.853 2.151 3.853 4.364v.414l-4.624 4.624c1.475.187 2.624 1.436 2.624 2.962 0 1.273-.8 2.356-1.921 2.791l2.847 1.83c5.682 3.651 9.074 9.865 9.074 16.62zm-14.291-31.895-2.355 7.654h1.232l5.383-5.384c-.167-1.033-1.002-1.862-2.07-1.996zm-12.402-2.587 3.414 10.241h4.541l3.472-11.286-2.332-.583-3.45 4.6-2.412-3.619zm-5.276 4.857 5.383 5.384h1.198l-2.542-7.626-1.969.246c-1.068.134-1.903.963-2.07 1.996zm1.969 8.384c0 .552.449 1 1 1h16c.551 0 1-.448 1-1s-.449-1-1-1h-16c-.551 0-1 .448-1 1zm-30 20c0 1.654 1.346 3 3 3h5v-6h-5c-1.654 0-3 1.346-3 3zm7.695 23c-2.834-1.992-4.695-5.28-4.695-9s1.861-7.008 4.695-9h-4.695c-1.125 0-2.164-.373-3-1.002v16.002c0 1.654 1.346 3 3 3zm-2.695-9c0 4.963 4.038 9 9 9s9-4.037 9-9-4.038-9-9-9-9 4.037-9 9zm31-9h-15.695c2.834 1.992 4.695 5.28 4.695 9s-1.861 7.008-4.695 9h15.695zm2 6h2c1.654 0 3-1.346 3-3s-1.346-3-3-3c-.712 0-1.386-.154-2-.424zm20-9.759c0-6.071-3.049-11.655-8.155-14.938l-5.138-3.303h-11.414l-5.138 3.303c-5.106 3.283-8.155 8.867-8.155 14.938 0 .588.04 1.175.097 1.759h15.929c-.635-.838-1.026-1.87-1.026-3 0-2.414 1.721-4.434 4-4.899v-2.101h2v2h4v5h-2v-3h-3c-1.654 0-3 1.346-3 3s1.346 3 3 3c2.757 0 5 2.243 5 5s-2.243 5-5 5h-2v6h2.241c9.792 0 17.759-7.967 17.759-17.759zm-45 19.759h2v-2c1.654 0 3-1.346 3-3s-1.346-3-3-3h-2c-.551 0-1-.448-1-1s.449-1 1-1h3v1h2v-3h-3v-2h-2v2c-1.654 0-3 1.346-3 3s1.346 3 3 3h2c.551 0 1 .448 1 1s-.449 1-1 1h-3v-1h-2v3h3zm19-9h2v-5h-5v2h3zm2 4h-2v3h-3v2h5z" fill="url(#SVGID_1_)"/></svg>