<svg id="Layer_5" enable-background="new 0 0 64 64" height="512" viewBox="0 0 64 64" width="512" xmlns="http://www.w3.org/2000/svg" xmlns:xlink="http://www.w3.org/1999/xlink"><linearGradient id="SVGID_1_" gradientUnits="userSpaceOnUse" x1="32" x2="32" y1="63" y2="1"><stop offset="0" stop-color="#9f2fff"/><stop offset="1" stop-color="#0bb1d3"/></linearGradient><path d="m9 39h12 16 12c1.103 0 2-.897 2-2v-22c0-1.103-.897-2-2-2h-12-16-12c-1.103 0-2 .897-2 2v22c0 1.103.897 2 2 2zm0-2v-18h12v18zm14 0v-2h12v2zm14 0v-18h12l.001 18zm12-22v2h-12v-2zm-14 0v18h-12v-18zm-14 0v2h-12v-2zm-2 8v2.259l-5.126 9.227-1.748-.972 4.73-8.514h-5.856v-2zm28 0v2.259l-5.126 9.227-1.748-.972 4.73-8.514h-5.856v-2zm-16.144-2h-5.856v-2h8v2.259l-5.126 9.227-1.748-.972zm32.144 1c0-1.654-1.346-3-3-3s-3 1.346-3 3c0 1.302.839 2.402 2 2.816v12.184h-4v-23c0-2.757-2.243-5-5-5h-3.026c.635-.838 1.026-1.87 1.026-3 0-2.757-2.243-5-5-5h-28c-2.757 0-5 2.243-5 5 0 1.13.391 2.162 1.026 3h-3.026c-2.757 0-5 2.243-5 5v27.184c-1.161.414-2 1.514-2 2.816v16c0 1.654 1.346 3 3 3h50c1.654 0 3-1.346 3-3v-13h3c1.654 0 3-1.346 3-3v-4c0-1.302-.839-2.402-2-2.816v-12.368c1.161-.414 2-1.514 2-2.816zm-3-1c.551 0 1 .449 1 1s-.449 1-1 1-1-.449-1-1 .449-1 1-1zm-48-15c0-1.654 1.346-3 3-3h28c1.654 0 3 1.346 3 3s-1.346 3-3 3h-28c-1.654 0-3-1.346-3-3zm-4 5h7 28 7c1.654 0 3 1.346 3 3v27h-48v-27c0-1.654 1.346-3 3-3zm-1 50v-14h3.202c-.788 1.537-1.202 3.236-1.202 5 0 3.72 1.861 7.008 4.695 9zm9-11c0 1.654 1.346 3 3 3h2c.551 0 1 .449 1 1s-.449 1-1 1h-3v-1h-2v3h3v2h2v-2c1.654 0 3-1.346 3-3s-1.346-3-3-3h-2c-.551 0-1-.449-1-1s.449-1 1-1h3v1h2v-3h3.477c.994 1.481 1.523 3.198 1.523 5 0 4.962-4.038 9-9 9s-9-4.038-9-9c0-1.802.529-3.519 1.523-5h6.477c-1.654 0-3 1.346-3 3zm24-2c0 .551-.449 1-1 1h-3v-1h-2v3h3v2h2v-2c1.654 0 3-1.346 3-3 0-.352-.072-.686-.184-1h5.125c-.5 4.493-4.317 8-8.941 8-2.761 0-5.296-1.234-7.015-3.38-.055-1.628-.456-3.193-1.187-4.62h7.135 2.067c.551 0 1 .449 1 1zm-9.239 6.272c1.985 1.747 4.522 2.728 7.239 2.728 5.728 0 10.442-4.402 10.949-10h2.051v14h-24.695c2.241-1.575 3.872-3.958 4.456-6.728zm24.239 5.728c0 .551-.449 1-1 1h-1v-16h-14-2.067-31.933v16h-1c-.551 0-1-.449-1-1v-16c0-.551.449-1 1-1h50c.551 0 1 .449 1 1zm6-16c0 .551-.449 1-1 1h-3v-1c0-1.302-.839-2.402-2-2.816v-2.184h5c.551 0 1 .449 1 1zm-47-39h2v2h-2zm4 0h22v2h-22zm26 2h-2v-2h2z" fill="url(#SVGID_1_)"/></svg>